<svg version="1.1" id="Layer_1" xmlns="http://www.w3.org/2000/svg" xmlns:xlink="http://www.w3.org/1999/xlink" x="0px" y="0px"
	 width="100%" viewBox="0 0 512 512" enable-background="new 0 0 512 512" xml:space="preserve">
<path fill="#FFFFFF" opacity="1.000000" stroke="none" 
	d="
M1.000000,307.000000 
	C1.000000,205.039383 1.000000,103.078766 1.000000,1.059076 
	C171.561356,1.059076 342.122742,1.059076 513.000000,1.059076 
	C513.000000,102.688461 513.000000,204.377258 512.702271,306.351440 
	C510.821259,301.269623 507.067017,297.397797 501.975647,296.264618 
	C489.139801,293.407684 476.159454,291.131378 463.166016,289.069885 
	C449.356628,286.878998 435.481384,285.066132 421.591766,283.461639 
	C419.676941,283.240479 417.514038,285.167297 415.465973,286.099670 
	C416.388123,287.944885 416.829712,290.533875 418.321350,291.497589 
	C423.031769,294.540924 428.100037,297.043823 433.093414,299.633240 
	C451.157501,309.000549 469.168732,318.476929 487.399536,327.509247 
	C490.737854,329.163177 495.048706,329.636627 498.841248,329.423004 
	C505.985229,329.020477 510.164734,324.158295 513.000000,318.000000 
	C513.000000,382.968719 513.000000,447.937408 513.000000,512.953064 
	C342.446777,512.953064 171.893555,512.953064 1.000000,512.953064 
	C1.000000,448.311707 1.000000,383.622833 1.297429,318.648102 
	C3.610218,324.071991 7.402018,327.465271 13.410067,329.183289 
	C19.140675,330.821930 23.923258,328.838165 28.600948,326.619019 
	C40.710560,320.874023 52.706135,314.873016 64.591179,308.674988 
	C75.148270,303.169464 85.557678,297.369141 95.864548,291.408875 
	C97.292404,290.583160 98.927689,287.420319 98.410561,286.518219 
	C97.486298,284.905823 94.971603,283.240173 93.163635,283.284943 
	C88.259750,283.406464 83.359619,284.300232 78.490311,285.087585 
	C58.357311,288.342987 38.267811,291.885559 18.095274,294.869293 
	C10.055032,296.058533 4.290216,299.557526 1.000000,307.000000 
M157.752060,399.991455 
	C190.867004,380.331329 223.981949,360.671204 256.826599,341.171539 
	C261.144348,343.579254 265.222443,345.732513 269.184387,348.081635 
	C303.047150,368.160095 336.936554,388.194580 370.685425,408.463013 
	C375.748505,411.503754 380.193726,411.706360 384.908966,408.495667 
	C389.481140,405.382416 389.792145,400.580353 388.803162,395.961090 
	C385.229492,379.269623 381.314697,362.650970 377.508087,346.009583 
	C371.725464,320.730011 365.866150,295.467499 360.266724,270.147491 
	C359.892578,268.455750 360.915710,265.849365 362.181519,264.515320 
	C365.819305,260.681366 369.859863,257.218994 373.841614,253.723923 
	C386.877472,242.281342 399.944916,230.874619 413.025635,219.483307 
	C419.871796,213.521362 426.801544,207.655319 433.638855,201.683304 
	C442.478882,193.962067 451.319092,186.239380 460.056152,178.402390 
	C467.299988,171.904816 463.821838,159.561768 454.580444,158.761002 
	C442.454651,157.710281 430.373291,156.155212 418.252808,155.032974 
	C405.769958,153.877197 393.255188,153.068939 380.768646,151.949753 
	C363.209564,150.375900 345.651184,148.771271 328.123169,146.893661 
	C324.876190,146.545853 320.811218,147.426056 318.938538,142.943344 
	C312.717743,128.052353 306.408356,113.196617 299.950531,98.407028 
	C295.479767,88.168205 290.708221,78.060707 286.002167,67.140129 
	C285.950348,66.643311 286.016632,66.096199 285.829529,65.656990 
	C280.045837,52.078186 274.240265,38.508705 268.431488,24.940594 
	C265.635529,18.409800 263.148804,17.037096 255.785446,16.945116 
	C249.545044,16.867165 247.176468,21.109465 245.156082,25.771564 
	C240.450104,36.630657 235.889923,47.552856 231.251419,58.441280 
	C224.485550,74.323540 217.716568,90.204521 210.922745,106.074844 
	C205.615021,118.473640 200.338577,130.887085 194.847885,143.204712 
	C194.160721,144.746292 192.368210,146.641296 190.883774,146.838821 
	C183.374985,147.837952 175.801956,148.369675 168.245224,148.989395 
	C159.363831,149.717773 150.462219,150.225647 141.594009,151.083588 
	C125.700401,152.621201 109.838814,154.498840 93.937492,155.944565 
	C83.410172,156.901718 72.818130,157.150528 62.292740,158.123871 
	C57.572304,158.560425 52.983814,159.767197 50.975391,165.249252 
	C48.907585,170.893387 50.536922,175.351334 54.655682,179.065430 
	C63.000671,186.590485 71.490723,193.955048 79.942802,201.360855 
	C93.111526,212.899429 106.276085,224.442947 119.485176,235.935211 
	C128.948273,244.168396 138.597702,252.192123 147.911469,260.589417 
	C150.668182,263.074860 155.031754,265.026794 153.891907,270.102905 
	C150.190308,286.587494 146.494034,303.073486 142.725052,319.542725 
	C136.906738,344.966858 130.943848,370.358337 125.257172,395.811676 
	C124.228775,400.414734 124.532600,405.110931 128.969223,408.416779 
	C133.142349,411.526337 137.640808,411.622070 141.943497,409.332458 
	C147.141449,406.566437 152.025757,403.210938 157.752060,399.991455 
M112.000603,12.103071 
	C110.670540,12.036951 109.334045,12.032446 108.011490,11.894394 
	C101.075035,11.170343 95.656624,13.916842 92.214806,19.747316 
	C88.582191,25.901007 88.606743,32.577637 92.454666,38.609016 
	C94.830437,42.332901 98.086220,45.563660 101.260437,48.698338 
	C117.242279,64.481117 133.359085,80.127228 149.340302,95.910637 
	C151.628143,98.170151 154.308517,99.600098 156.585434,97.327469 
	C157.743805,96.171280 157.630310,92.577637 156.750748,90.721184 
	C147.029068,70.202019 137.248413,49.704403 127.013451,29.438456 
	C123.659851,22.798086 120.841980,15.239810 112.000603,12.103071 
M382.501465,37.997669 
	C373.961975,55.775581 365.346069,73.517853 357.008972,91.390167 
	C356.231323,93.057236 357.218201,95.547424 357.385773,97.655434 
	C359.613342,97.246918 362.421814,97.552475 363.962311,96.299347 
	C369.099396,92.120651 373.897614,87.500175 378.615906,82.836769 
	C390.467865,71.122757 402.489899,59.558552 413.854309,47.384075 
	C418.718414,42.173256 424.748047,37.429348 424.256866,28.474916 
	C423.895782,21.892113 419.929962,14.445333 412.519531,12.433458 
	C404.919067,10.369993 397.418823,11.742821 392.999420,19.133125 
	C389.435944,25.092155 386.237183,31.269293 382.501465,37.997669 
M262.863312,408.883301 
	C262.559113,407.436188 262.637726,405.723969 261.861786,404.603546 
	C260.671967,402.885376 259.055847,400.730194 257.307220,400.394958 
	C256.187347,400.180267 253.543259,402.717743 253.224136,404.343658 
	C250.593994,417.743958 248.172836,431.191956 246.037369,444.680725 
	C244.055237,457.200867 242.677292,469.816711 240.693436,482.336548 
	C239.548019,489.565063 242.526703,496.750580 248.922318,500.338043 
	C254.842697,503.658936 264.684448,502.697937 269.313568,498.141541 
	C274.470428,493.065796 275.320465,486.974854 274.110474,479.939301 
	C271.879700,466.968445 270.422058,453.866760 268.396332,440.857880 
	C266.776184,430.453308 264.791290,420.105560 262.863312,408.883301 
z"/>
<path fill="#FFF082" opacity="1.000000" stroke="none" 
	d="
M1.000000,307.458069 
	C4.290216,299.557526 10.055032,296.058533 18.095274,294.869293 
	C38.267811,291.885559 58.357311,288.342987 78.490311,285.087585 
	C83.359619,284.300232 88.259750,283.406464 93.163635,283.284943 
	C94.971603,283.240173 97.486298,284.905823 98.410561,286.518219 
	C98.927689,287.420319 97.292404,290.583160 95.864548,291.408875 
	C85.557678,297.369141 75.148270,303.169464 64.591179,308.674988 
	C52.706135,314.873016 40.710560,320.874023 28.600948,326.619019 
	C23.923258,328.838165 19.140675,330.821930 13.410067,329.183289 
	C7.402018,327.465271 3.610218,324.071991 1.297429,318.181122 
	C1.000000,314.638702 1.000000,311.277435 1.000000,307.458069 
z"/>
<path fill="#FFF082" opacity="1.000000" stroke="none" 
	d="
M513.000000,317.541931 
	C510.164734,324.158295 505.985229,329.020477 498.841248,329.423004 
	C495.048706,329.636627 490.737854,329.163177 487.399536,327.509247 
	C469.168732,318.476929 451.157501,309.000549 433.093414,299.633240 
	C428.100037,297.043823 423.031769,294.540924 418.321350,291.497589 
	C416.829712,290.533875 416.388123,287.944885 415.465973,286.099670 
	C417.514038,285.167297 419.676941,283.240479 421.591766,283.461639 
	C435.481384,285.066132 449.356628,286.878998 463.166016,289.069885 
	C476.159454,291.131378 489.139801,293.407684 501.975647,296.264618 
	C507.067017,297.397797 510.821259,301.269623 512.702271,306.818420 
	C513.000000,310.361298 513.000000,313.722565 513.000000,317.541931 
z"/>
<path fill="#FFDC64" opacity="1.000000" stroke="none" 
	d="
M286.071045,67.894531 
	C290.708221,78.060707 295.479767,88.168205 299.950531,98.407028 
	C306.408356,113.196617 312.717743,128.052353 318.938538,142.943344 
	C320.811218,147.426056 324.876190,146.545853 328.123169,146.893661 
	C345.651184,148.771271 363.209564,150.375900 380.768646,151.949753 
	C393.255188,153.068939 405.769958,153.877197 418.252808,155.032974 
	C430.373291,156.155212 442.454651,157.710281 454.580444,158.761002 
	C463.821838,159.561768 467.299988,171.904816 460.056152,178.402390 
	C451.319092,186.239380 442.478882,193.962067 433.638855,201.683304 
	C426.801544,207.655319 419.871796,213.521362 413.025635,219.483307 
	C399.944916,230.874619 386.877472,242.281342 373.841614,253.723923 
	C369.859863,257.218994 365.819305,260.681366 362.181519,264.515320 
	C360.915710,265.849365 359.892578,268.455750 360.266724,270.147491 
	C365.866150,295.467499 371.725464,320.730011 377.508087,346.009583 
	C381.314697,362.650970 385.229492,379.269623 388.803162,395.961090 
	C389.792145,400.580353 389.481140,405.382416 384.908966,408.495667 
	C380.193726,411.706360 375.748505,411.503754 370.685425,408.463013 
	C336.936554,388.194580 303.047150,368.160095 269.184387,348.081635 
	C265.222443,345.732513 261.144348,343.579254 256.826599,341.171539 
	C223.981949,360.671204 190.867004,380.331329 157.384674,399.614380 
	C158.471085,390.605743 159.536072,381.886688 161.454468,373.359650 
	C166.431259,351.238373 171.030838,328.988892 177.190948,307.189026 
	C183.772171,283.898865 191.246155,260.797150 199.665359,238.108536 
	C207.741989,216.343155 216.947220,194.942001 226.735291,173.882187 
	C235.833145,154.307434 245.859055,135.117264 256.397583,116.272949 
	C265.623901,99.775009 276.130188,83.992874 286.071045,67.894531 
z"/>
<path fill="#FFC850" opacity="1.000000" stroke="none" 
	d="
M286.036621,67.517334 
	C276.130188,83.992874 265.623901,99.775009 256.397583,116.272949 
	C245.859055,135.117264 235.833145,154.307434 226.735291,173.882187 
	C216.947220,194.942001 207.741989,216.343155 199.665359,238.108536 
	C191.246155,260.797150 183.772171,283.898865 177.190948,307.189026 
	C171.030838,328.988892 166.431259,351.238373 161.454468,373.359650 
	C159.536072,381.886688 158.471085,390.605743 157.031555,399.673950 
	C152.025757,403.210938 147.141449,406.566437 141.943497,409.332458 
	C137.640808,411.622070 133.142349,411.526337 128.969223,408.416779 
	C124.532600,405.110931 124.228775,400.414734 125.257172,395.811676 
	C130.943848,370.358337 136.906738,344.966858 142.725052,319.542725 
	C146.494034,303.073486 150.190308,286.587494 153.891907,270.102905 
	C155.031754,265.026794 150.668182,263.074860 147.911469,260.589417 
	C138.597702,252.192123 128.948273,244.168396 119.485176,235.935211 
	C106.276085,224.442947 93.111526,212.899429 79.942802,201.360855 
	C71.490723,193.955048 63.000671,186.590485 54.655682,179.065430 
	C50.536922,175.351334 48.907585,170.893387 50.975391,165.249252 
	C52.983814,159.767197 57.572304,158.560425 62.292740,158.123871 
	C72.818130,157.150528 83.410172,156.901718 93.937492,155.944565 
	C109.838814,154.498840 125.700401,152.621201 141.594009,151.083588 
	C150.462219,150.225647 159.363831,149.717773 168.245224,148.989395 
	C175.801956,148.369675 183.374985,147.837952 190.883774,146.838821 
	C192.368210,146.641296 194.160721,144.746292 194.847885,143.204712 
	C200.338577,130.887085 205.615021,118.473640 210.922745,106.074844 
	C217.716568,90.204521 224.485550,74.323540 231.251419,58.441280 
	C235.889923,47.552856 240.450104,36.630657 245.156082,25.771564 
	C247.176468,21.109465 249.545044,16.867165 255.785446,16.945116 
	C263.148804,17.037096 265.635529,18.409800 268.431488,24.940594 
	C274.240265,38.508705 280.045837,52.078186 285.829529,65.656990 
	C286.016632,66.096199 285.950348,66.643311 286.036621,67.517334 
z"/>
<path fill="#FFF082" opacity="1.000000" stroke="none" 
	d="
M112.370361,12.232677 
	C120.841980,15.239810 123.659851,22.798086 127.013451,29.438456 
	C137.248413,49.704403 147.029068,70.202019 156.750748,90.721184 
	C157.630310,92.577637 157.743805,96.171280 156.585434,97.327469 
	C154.308517,99.600098 151.628143,98.170151 149.340302,95.910637 
	C133.359085,80.127228 117.242279,64.481117 101.260437,48.698338 
	C98.086220,45.563660 94.830437,42.332901 92.454666,38.609016 
	C88.606743,32.577637 88.582191,25.901007 92.214806,19.747316 
	C95.656624,13.916842 101.075035,11.170343 108.011490,11.894394 
	C109.334045,12.032446 110.670540,12.036951 112.370361,12.232677 
z"/>
<path fill="#FFF082" opacity="1.000000" stroke="none" 
	d="
M382.689026,37.673660 
	C386.237183,31.269293 389.435944,25.092155 392.999420,19.133125 
	C397.418823,11.742821 404.919067,10.369993 412.519531,12.433458 
	C419.929962,14.445333 423.895782,21.892113 424.256866,28.474916 
	C424.748047,37.429348 418.718414,42.173256 413.854309,47.384075 
	C402.489899,59.558552 390.467865,71.122757 378.615906,82.836769 
	C373.897614,87.500175 369.099396,92.120651 363.962311,96.299347 
	C362.421814,97.552475 359.613342,97.246918 357.385803,97.655434 
	C357.218201,95.547424 356.231323,93.057236 357.008972,91.390167 
	C365.346069,73.517853 373.961975,55.775581 382.689026,37.673660 
z"/>
<path fill="#FFF082" opacity="1.000000" stroke="none" 
	d="
M262.915802,409.307922 
	C264.791290,420.105560 266.776184,430.453308 268.396332,440.857880 
	C270.422058,453.866760 271.879700,466.968445 274.110474,479.939301 
	C275.320465,486.974854 274.470428,493.065796 269.313568,498.141541 
	C264.684448,502.697937 254.842697,503.658936 248.922318,500.338043 
	C242.526703,496.750580 239.548019,489.565063 240.693436,482.336548 
	C242.677292,469.816711 244.055237,457.200867 246.037369,444.680725 
	C248.172836,431.191956 250.593994,417.743958 253.224136,404.343658 
	C253.543259,402.717743 256.187347,400.180267 257.307220,400.394958 
	C259.055847,400.730194 260.671967,402.885376 261.861786,404.603546 
	C262.637726,405.723969 262.559113,407.436188 262.915802,409.307922 
z"/>
</svg>